<?xml version="1.0" encoding="utf-8" standalone="no"?>
<!DOCTYPE svg PUBLIC "-//W3C//DTD SVG 1.1//EN"
  "http://www.w3.org/Graphics/SVG/1.1/DTD/svg11.dtd">
<svg xmlns:xlink="http://www.w3.org/1999/xlink" width="1080pt" height="606.528pt" viewBox="0 0 1080 606.528" xmlns="http://www.w3.org/2000/svg" version="1.1">
 <metadata>
  <rdf:RDF xmlns:dc="http://purl.org/dc/elements/1.1/" xmlns:cc="http://creativecommons.org/ns#" xmlns:rdf="http://www.w3.org/1999/02/22-rdf-syntax-ns#">
   <cc:Work>
    <dc:type rdf:resource="http://purl.org/dc/dcmitype/StillImage"/>
    <dc:date>2023-12-03T16:57:14.183564</dc:date>
    <dc:format>image/svg+xml</dc:format>
    <dc:creator>
     <cc:Agent>
      <dc:title>Matplotlib v3.8.1, https://matplotlib.org/</dc:title>
     </cc:Agent>
    </dc:creator>
   </cc:Work>
  </rdf:RDF>
 </metadata>
 <defs>
  <style type="text/css">*{stroke-linejoin: round; stroke-linecap: butt}</style>
 </defs>
 <g id="figure_1">
  <g id="patch_1">
   <path d="M 0 606.528 
L 1080 606.528 
L 1080 0 
L 0 0 
z
" style="fill: #ffffff"/>
  </g>
  <g id="axes_1">
   <g id="patch_2">
    <path d="M 47.72 266.762496 
L 1059.705 266.762496 
L 1059.705 26.836992 
L 47.72 26.836992 
z
" style="fill: #ffffff"/>
   </g>
   <g id="matplotlib.axis_1">
    <g id="xtick_1">
     <g id="line2d_1">
      <defs>
       <path id="m95b51ad784" d="M 0 0 
L 0 3.5 
" style="stroke: #000000; stroke-width: 0.8"/>
      </defs>
      <g>
       <use xlink:href="#m95b51ad784" x="93.719318" y="266.762496" style="stroke: #000000; stroke-width: 0.8"/>
      </g>
     </g>
     <g id="text_1">
      <!-- 0 -->
      <g transform="translate(90.538068 281.360933) scale(0.1 -0.1)">
       <defs>
        <path id="DejaVuSans-30" d="M 2034 4250 
Q 1547 4250 1301 3770 
Q 1056 3291 1056 2328 
Q 1056 1369 1301 889 
Q 1547 409 2034 409 
Q 2525 409 2770 889 
Q 3016 1369 3016 2328 
Q 3016 3291 2770 3770 
Q 2525 4250 2034 4250 
z
M 2034 4750 
Q 2819 4750 3233 4129 
Q 3647 3509 3647 2328 
Q 3647 1150 3233 529 
Q 2819 -91 2034 -91 
Q 1250 -91 836 529 
Q 422 1150 422 2328 
Q 422 3509 836 4129 
Q 1250 4750 2034 4750 
z
" transform="scale(0.015625)"/>
       </defs>
       <use xlink:href="#DejaVuSans-30"/>
      </g>
     </g>
    </g>
    <g id="xtick_2">
     <g id="line2d_2">
      <g>
       <use xlink:href="#m95b51ad784" x="247.563192" y="266.762496" style="stroke: #000000; stroke-width: 0.8"/>
      </g>
     </g>
     <g id="text_2">
      <!-- 50 -->
      <g transform="translate(241.200692 281.360933) scale(0.1 -0.1)">
       <defs>
        <path id="DejaVuSans-35" d="M 691 4666 
L 3169 4666 
L 3169 4134 
L 1269 4134 
L 1269 2991 
Q 1406 3038 1543 3061 
Q 1681 3084 1819 3084 
Q 2600 3084 3056 2656 
Q 3513 2228 3513 1497 
Q 3513 744 3044 326 
Q 2575 -91 1722 -91 
Q 1428 -91 1123 -41 
Q 819 9 494 109 
L 494 744 
Q 775 591 1075 516 
Q 1375 441 1709 441 
Q 2250 441 2565 725 
Q 2881 1009 2881 1497 
Q 2881 1984 2565 2268 
Q 2250 2553 1709 2553 
Q 1456 2553 1204 2497 
Q 953 2441 691 2322 
L 691 4666 
z
" transform="scale(0.015625)"/>
       </defs>
       <use xlink:href="#DejaVuSans-35"/>
       <use xlink:href="#DejaVuSans-30" x="63.623047"/>
      </g>
     </g>
    </g>
    <g id="xtick_3">
     <g id="line2d_3">
      <g>
       <use xlink:href="#m95b51ad784" x="401.407065" y="266.762496" style="stroke: #000000; stroke-width: 0.8"/>
      </g>
     </g>
     <g id="text_3">
      <!-- 100 -->
      <g transform="translate(391.863315 281.360933) scale(0.1 -0.1)">
       <defs>
        <path id="DejaVuSans-31" d="M 794 531 
L 1825 531 
L 1825 4091 
L 703 3866 
L 703 4441 
L 1819 4666 
L 2450 4666 
L 2450 531 
L 3481 531 
L 3481 0 
L 794 0 
L 794 531 
z
" transform="scale(0.015625)"/>
       </defs>
       <use xlink:href="#DejaVuSans-31"/>
       <use xlink:href="#DejaVuSans-30" x="63.623047"/>
       <use xlink:href="#DejaVuSans-30" x="127.246094"/>
      </g>
     </g>
    </g>
    <g id="xtick_4">
     <g id="line2d_4">
      <g>
       <use xlink:href="#m95b51ad784" x="555.250939" y="266.762496" style="stroke: #000000; stroke-width: 0.8"/>
      </g>
     </g>
     <g id="text_4">
      <!-- 150 -->
      <g transform="translate(545.707189 281.360933) scale(0.1 -0.1)">
       <use xlink:href="#DejaVuSans-31"/>
       <use xlink:href="#DejaVuSans-35" x="63.623047"/>
       <use xlink:href="#DejaVuSans-30" x="127.246094"/>
      </g>
     </g>
    </g>
    <g id="xtick_5">
     <g id="line2d_5">
      <g>
       <use xlink:href="#m95b51ad784" x="709.094812" y="266.762496" style="stroke: #000000; stroke-width: 0.8"/>
      </g>
     </g>
     <g id="text_5">
      <!-- 200 -->
      <g transform="translate(699.551062 281.360933) scale(0.1 -0.1)">
       <defs>
        <path id="DejaVuSans-32" d="M 1228 531 
L 3431 531 
L 3431 0 
L 469 0 
L 469 531 
Q 828 903 1448 1529 
Q 2069 2156 2228 2338 
Q 2531 2678 2651 2914 
Q 2772 3150 2772 3378 
Q 2772 3750 2511 3984 
Q 2250 4219 1831 4219 
Q 1534 4219 1204 4116 
Q 875 4013 500 3803 
L 500 4441 
Q 881 4594 1212 4672 
Q 1544 4750 1819 4750 
Q 2544 4750 2975 4387 
Q 3406 4025 3406 3419 
Q 3406 3131 3298 2873 
Q 3191 2616 2906 2266 
Q 2828 2175 2409 1742 
Q 1991 1309 1228 531 
z
" transform="scale(0.015625)"/>
       </defs>
       <use xlink:href="#DejaVuSans-32"/>
       <use xlink:href="#DejaVuSans-30" x="63.623047"/>
       <use xlink:href="#DejaVuSans-30" x="127.246094"/>
      </g>
     </g>
    </g>
    <g id="xtick_6">
     <g id="line2d_6">
      <g>
       <use xlink:href="#m95b51ad784" x="862.938686" y="266.762496" style="stroke: #000000; stroke-width: 0.8"/>
      </g>
     </g>
     <g id="text_6">
      <!-- 250 -->
      <g transform="translate(853.394936 281.360933) scale(0.1 -0.1)">
       <use xlink:href="#DejaVuSans-32"/>
       <use xlink:href="#DejaVuSans-35" x="63.623047"/>
       <use xlink:href="#DejaVuSans-30" x="127.246094"/>
      </g>
     </g>
    </g>
    <g id="xtick_7">
     <g id="line2d_7">
      <g>
       <use xlink:href="#m95b51ad784" x="1016.782559" y="266.762496" style="stroke: #000000; stroke-width: 0.8"/>
      </g>
     </g>
     <g id="text_7">
      <!-- 300 -->
      <g transform="translate(1007.238809 281.360933) scale(0.1 -0.1)">
       <defs>
        <path id="DejaVuSans-33" d="M 2597 2516 
Q 3050 2419 3304 2112 
Q 3559 1806 3559 1356 
Q 3559 666 3084 287 
Q 2609 -91 1734 -91 
Q 1441 -91 1130 -33 
Q 819 25 488 141 
L 488 750 
Q 750 597 1062 519 
Q 1375 441 1716 441 
Q 2309 441 2620 675 
Q 2931 909 2931 1356 
Q 2931 1769 2642 2001 
Q 2353 2234 1838 2234 
L 1294 2234 
L 1294 2753 
L 1863 2753 
Q 2328 2753 2575 2939 
Q 2822 3125 2822 3475 
Q 2822 3834 2567 4026 
Q 2313 4219 1838 4219 
Q 1578 4219 1281 4162 
Q 984 4106 628 3988 
L 628 4550 
Q 988 4650 1302 4700 
Q 1616 4750 1894 4750 
Q 2613 4750 3031 4423 
Q 3450 4097 3450 3541 
Q 3450 3153 3228 2886 
Q 3006 2619 2597 2516 
z
" transform="scale(0.015625)"/>
       </defs>
       <use xlink:href="#DejaVuSans-33"/>
       <use xlink:href="#DejaVuSans-30" x="63.623047"/>
       <use xlink:href="#DejaVuSans-30" x="127.246094"/>
      </g>
     </g>
    </g>
    <g id="text_8">
     <!-- Time -->
     <g transform="translate(541.478906 295.039059) scale(0.1 -0.1)">
      <defs>
       <path id="DejaVuSans-54" d="M -19 4666 
L 3928 4666 
L 3928 4134 
L 2272 4134 
L 2272 0 
L 1638 0 
L 1638 4134 
L -19 4134 
L -19 4666 
z
" transform="scale(0.015625)"/>
       <path id="DejaVuSans-69" d="M 603 3500 
L 1178 3500 
L 1178 0 
L 603 0 
L 603 3500 
z
M 603 4863 
L 1178 4863 
L 1178 4134 
L 603 4134 
L 603 4863 
z
" transform="scale(0.015625)"/>
       <path id="DejaVuSans-6d" d="M 3328 2828 
Q 3544 3216 3844 3400 
Q 4144 3584 4550 3584 
Q 5097 3584 5394 3201 
Q 5691 2819 5691 2113 
L 5691 0 
L 5113 0 
L 5113 2094 
Q 5113 2597 4934 2840 
Q 4756 3084 4391 3084 
Q 3944 3084 3684 2787 
Q 3425 2491 3425 1978 
L 3425 0 
L 2847 0 
L 2847 2094 
Q 2847 2600 2669 2842 
Q 2491 3084 2119 3084 
Q 1678 3084 1418 2786 
Q 1159 2488 1159 1978 
L 1159 0 
L 581 0 
L 581 3500 
L 1159 3500 
L 1159 2956 
Q 1356 3278 1631 3431 
Q 1906 3584 2284 3584 
Q 2666 3584 2933 3390 
Q 3200 3197 3328 2828 
z
" transform="scale(0.015625)"/>
       <path id="DejaVuSans-65" d="M 3597 1894 
L 3597 1613 
L 953 1613 
Q 991 1019 1311 708 
Q 1631 397 2203 397 
Q 2534 397 2845 478 
Q 3156 559 3463 722 
L 3463 178 
Q 3153 47 2828 -22 
Q 2503 -91 2169 -91 
Q 1331 -91 842 396 
Q 353 884 353 1716 
Q 353 2575 817 3079 
Q 1281 3584 2069 3584 
Q 2775 3584 3186 3129 
Q 3597 2675 3597 1894 
z
M 3022 2063 
Q 3016 2534 2758 2815 
Q 2500 3097 2075 3097 
Q 1594 3097 1305 2825 
Q 1016 2553 972 2059 
L 3022 2063 
z
" transform="scale(0.015625)"/>
      </defs>
      <use xlink:href="#DejaVuSans-54"/>
      <use xlink:href="#DejaVuSans-69" x="57.958984"/>
      <use xlink:href="#DejaVuSans-6d" x="85.742188"/>
      <use xlink:href="#DejaVuSans-65" x="183.154297"/>
     </g>
    </g>
   </g>
   <g id="matplotlib.axis_2">
    <g id="ytick_1">
     <g id="line2d_8">
      <defs>
       <path id="md1e9a3ca46" d="M 0 0 
L -3.5 0 
" style="stroke: #000000; stroke-width: 0.8"/>
      </defs>
      <g>
       <use xlink:href="#md1e9a3ca46" x="47.72" y="246.768704" style="stroke: #000000; stroke-width: 0.8"/>
      </g>
     </g>
     <g id="text_9">
      <!-- 0.0 -->
      <g transform="translate(24.816875 250.567923) scale(0.1 -0.1)">
       <defs>
        <path id="DejaVuSans-2e" d="M 684 794 
L 1344 794 
L 1344 0 
L 684 0 
L 684 794 
z
" transform="scale(0.015625)"/>
       </defs>
       <use xlink:href="#DejaVuSans-30"/>
       <use xlink:href="#DejaVuSans-2e" x="63.623047"/>
       <use xlink:href="#DejaVuSans-30" x="95.410156"/>
      </g>
     </g>
    </g>
    <g id="ytick_2">
     <g id="line2d_9">
      <g>
       <use xlink:href="#md1e9a3ca46" x="47.72" y="206.78112" style="stroke: #000000; stroke-width: 0.8"/>
      </g>
     </g>
     <g id="text_10">
      <!-- 0.2 -->
      <g transform="translate(24.816875 210.580339) scale(0.1 -0.1)">
       <use xlink:href="#DejaVuSans-30"/>
       <use xlink:href="#DejaVuSans-2e" x="63.623047"/>
       <use xlink:href="#DejaVuSans-32" x="95.410156"/>
      </g>
     </g>
    </g>
    <g id="ytick_3">
     <g id="line2d_10">
      <g>
       <use xlink:href="#md1e9a3ca46" x="47.72" y="166.793536" style="stroke: #000000; stroke-width: 0.8"/>
      </g>
     </g>
     <g id="text_11">
      <!-- 0.4 -->
      <g transform="translate(24.816875 170.592755) scale(0.1 -0.1)">
       <defs>
        <path id="DejaVuSans-34" d="M 2419 4116 
L 825 1625 
L 2419 1625 
L 2419 4116 
z
M 2253 4666 
L 3047 4666 
L 3047 1625 
L 3713 1625 
L 3713 1100 
L 3047 1100 
L 3047 0 
L 2419 0 
L 2419 1100 
L 313 1100 
L 313 1709 
L 2253 4666 
z
" transform="scale(0.015625)"/>
       </defs>
       <use xlink:href="#DejaVuSans-30"/>
       <use xlink:href="#DejaVuSans-2e" x="63.623047"/>
       <use xlink:href="#DejaVuSans-34" x="95.410156"/>
      </g>
     </g>
    </g>
    <g id="ytick_4">
     <g id="line2d_11">
      <g>
       <use xlink:href="#md1e9a3ca46" x="47.72" y="126.805952" style="stroke: #000000; stroke-width: 0.8"/>
      </g>
     </g>
     <g id="text_12">
      <!-- 0.6 -->
      <g transform="translate(24.816875 130.605171) scale(0.1 -0.1)">
       <defs>
        <path id="DejaVuSans-36" d="M 2113 2584 
Q 1688 2584 1439 2293 
Q 1191 2003 1191 1497 
Q 1191 994 1439 701 
Q 1688 409 2113 409 
Q 2538 409 2786 701 
Q 3034 994 3034 1497 
Q 3034 2003 2786 2293 
Q 2538 2584 2113 2584 
z
M 3366 4563 
L 3366 3988 
Q 3128 4100 2886 4159 
Q 2644 4219 2406 4219 
Q 1781 4219 1451 3797 
Q 1122 3375 1075 2522 
Q 1259 2794 1537 2939 
Q 1816 3084 2150 3084 
Q 2853 3084 3261 2657 
Q 3669 2231 3669 1497 
Q 3669 778 3244 343 
Q 2819 -91 2113 -91 
Q 1303 -91 875 529 
Q 447 1150 447 2328 
Q 447 3434 972 4092 
Q 1497 4750 2381 4750 
Q 2619 4750 2861 4703 
Q 3103 4656 3366 4563 
z
" transform="scale(0.015625)"/>
       </defs>
       <use xlink:href="#DejaVuSans-30"/>
       <use xlink:href="#DejaVuSans-2e" x="63.623047"/>
       <use xlink:href="#DejaVuSans-36" x="95.410156"/>
      </g>
     </g>
    </g>
    <g id="ytick_5">
     <g id="line2d_12">
      <g>
       <use xlink:href="#md1e9a3ca46" x="47.72" y="86.818368" style="stroke: #000000; stroke-width: 0.8"/>
      </g>
     </g>
     <g id="text_13">
      <!-- 0.8 -->
      <g transform="translate(24.816875 90.617587) scale(0.1 -0.1)">
       <defs>
        <path id="DejaVuSans-38" d="M 2034 2216 
Q 1584 2216 1326 1975 
Q 1069 1734 1069 1313 
Q 1069 891 1326 650 
Q 1584 409 2034 409 
Q 2484 409 2743 651 
Q 3003 894 3003 1313 
Q 3003 1734 2745 1975 
Q 2488 2216 2034 2216 
z
M 1403 2484 
Q 997 2584 770 2862 
Q 544 3141 544 3541 
Q 544 4100 942 4425 
Q 1341 4750 2034 4750 
Q 2731 4750 3128 4425 
Q 3525 4100 3525 3541 
Q 3525 3141 3298 2862 
Q 3072 2584 2669 2484 
Q 3125 2378 3379 2068 
Q 3634 1759 3634 1313 
Q 3634 634 3220 271 
Q 2806 -91 2034 -91 
Q 1263 -91 848 271 
Q 434 634 434 1313 
Q 434 1759 690 2068 
Q 947 2378 1403 2484 
z
M 1172 3481 
Q 1172 3119 1398 2916 
Q 1625 2713 2034 2713 
Q 2441 2713 2670 2916 
Q 2900 3119 2900 3481 
Q 2900 3844 2670 4047 
Q 2441 4250 2034 4250 
Q 1625 4250 1398 4047 
Q 1172 3844 1172 3481 
z
" transform="scale(0.015625)"/>
       </defs>
       <use xlink:href="#DejaVuSans-30"/>
       <use xlink:href="#DejaVuSans-2e" x="63.623047"/>
       <use xlink:href="#DejaVuSans-38" x="95.410156"/>
      </g>
     </g>
    </g>
    <g id="ytick_6">
     <g id="line2d_13">
      <g>
       <use xlink:href="#md1e9a3ca46" x="47.72" y="46.830784" style="stroke: #000000; stroke-width: 0.8"/>
      </g>
     </g>
     <g id="text_14">
      <!-- 1.0 -->
      <g transform="translate(24.816875 50.630003) scale(0.1 -0.1)">
       <use xlink:href="#DejaVuSans-31"/>
       <use xlink:href="#DejaVuSans-2e" x="63.623047"/>
       <use xlink:href="#DejaVuSans-30" x="95.410156"/>
      </g>
     </g>
    </g>
    <g id="text_15">
     <!-- X-axis Value -->
     <g transform="translate(18.737187 177.11615) rotate(-90) scale(0.1 -0.1)">
      <defs>
       <path id="DejaVuSans-58" d="M 403 4666 
L 1081 4666 
L 2241 2931 
L 3406 4666 
L 4084 4666 
L 2584 2425 
L 4184 0 
L 3506 0 
L 2194 1984 
L 872 0 
L 191 0 
L 1856 2491 
L 403 4666 
z
" transform="scale(0.015625)"/>
       <path id="DejaVuSans-2d" d="M 313 2009 
L 1997 2009 
L 1997 1497 
L 313 1497 
L 313 2009 
z
" transform="scale(0.015625)"/>
       <path id="DejaVuSans-61" d="M 2194 1759 
Q 1497 1759 1228 1600 
Q 959 1441 959 1056 
Q 959 750 1161 570 
Q 1363 391 1709 391 
Q 2188 391 2477 730 
Q 2766 1069 2766 1631 
L 2766 1759 
L 2194 1759 
z
M 3341 1997 
L 3341 0 
L 2766 0 
L 2766 531 
Q 2569 213 2275 61 
Q 1981 -91 1556 -91 
Q 1019 -91 701 211 
Q 384 513 384 1019 
Q 384 1609 779 1909 
Q 1175 2209 1959 2209 
L 2766 2209 
L 2766 2266 
Q 2766 2663 2505 2880 
Q 2244 3097 1772 3097 
Q 1472 3097 1187 3025 
Q 903 2953 641 2809 
L 641 3341 
Q 956 3463 1253 3523 
Q 1550 3584 1831 3584 
Q 2591 3584 2966 3190 
Q 3341 2797 3341 1997 
z
" transform="scale(0.015625)"/>
       <path id="DejaVuSans-78" d="M 3513 3500 
L 2247 1797 
L 3578 0 
L 2900 0 
L 1881 1375 
L 863 0 
L 184 0 
L 1544 1831 
L 300 3500 
L 978 3500 
L 1906 2253 
L 2834 3500 
L 3513 3500 
z
" transform="scale(0.015625)"/>
       <path id="DejaVuSans-73" d="M 2834 3397 
L 2834 2853 
Q 2591 2978 2328 3040 
Q 2066 3103 1784 3103 
Q 1356 3103 1142 2972 
Q 928 2841 928 2578 
Q 928 2378 1081 2264 
Q 1234 2150 1697 2047 
L 1894 2003 
Q 2506 1872 2764 1633 
Q 3022 1394 3022 966 
Q 3022 478 2636 193 
Q 2250 -91 1575 -91 
Q 1294 -91 989 -36 
Q 684 19 347 128 
L 347 722 
Q 666 556 975 473 
Q 1284 391 1588 391 
Q 1994 391 2212 530 
Q 2431 669 2431 922 
Q 2431 1156 2273 1281 
Q 2116 1406 1581 1522 
L 1381 1569 
Q 847 1681 609 1914 
Q 372 2147 372 2553 
Q 372 3047 722 3315 
Q 1072 3584 1716 3584 
Q 2034 3584 2315 3537 
Q 2597 3491 2834 3397 
z
" transform="scale(0.015625)"/>
       <path id="DejaVuSans-20" transform="scale(0.015625)"/>
       <path id="DejaVuSans-56" d="M 1831 0 
L 50 4666 
L 709 4666 
L 2188 738 
L 3669 4666 
L 4325 4666 
L 2547 0 
L 1831 0 
z
" transform="scale(0.015625)"/>
       <path id="DejaVuSans-6c" d="M 603 4863 
L 1178 4863 
L 1178 0 
L 603 0 
L 603 4863 
z
" transform="scale(0.015625)"/>
       <path id="DejaVuSans-75" d="M 544 1381 
L 544 3500 
L 1119 3500 
L 1119 1403 
Q 1119 906 1312 657 
Q 1506 409 1894 409 
Q 2359 409 2629 706 
Q 2900 1003 2900 1516 
L 2900 3500 
L 3475 3500 
L 3475 0 
L 2900 0 
L 2900 538 
Q 2691 219 2414 64 
Q 2138 -91 1772 -91 
Q 1169 -91 856 284 
Q 544 659 544 1381 
z
M 1991 3584 
L 1991 3584 
z
" transform="scale(0.015625)"/>
      </defs>
      <use xlink:href="#DejaVuSans-58"/>
      <use xlink:href="#DejaVuSans-2d" x="63.505859"/>
      <use xlink:href="#DejaVuSans-61" x="99.589844"/>
      <use xlink:href="#DejaVuSans-78" x="160.869141"/>
      <use xlink:href="#DejaVuSans-69" x="220.048828"/>
      <use xlink:href="#DejaVuSans-73" x="247.832031"/>
      <use xlink:href="#DejaVuSans-20" x="299.931641"/>
      <use xlink:href="#DejaVuSans-56" x="331.71875"/>
      <use xlink:href="#DejaVuSans-61" x="392.376953"/>
      <use xlink:href="#DejaVuSans-6c" x="453.65625"/>
      <use xlink:href="#DejaVuSans-75" x="481.439453"/>
      <use xlink:href="#DejaVuSans-65" x="544.818359"/>
     </g>
    </g>
   </g>
   <g id="line2d_14">
    <path d="M 93.719318 46.830784 
L 149.103113 46.830784 
L 152.17999 66.764595 
L 155.256868 129.505114 
L 158.333745 149.8388 
L 189.10252 149.8388 
L 192.179397 206.121325 
L 195.256275 244.809312 
L 198.333152 245.409126 
L 201.41003 245.209188 
L 226.025049 245.209188 
L 229.101927 245.409126 
L 232.178804 245.209188 
L 235.255682 245.209188 
L 238.332559 245.409126 
L 241.409437 245.209188 
L 244.486314 245.409126 
L 247.563192 245.409126 
L 250.640069 245.209188 
L 256.793824 245.209188 
L 259.870702 245.409126 
L 262.947579 245.409126 
L 266.024457 150.618558 
L 269.101334 149.8388 
L 275.255089 149.8388 
L 278.331966 73.402534 
L 281.408844 46.830784 
L 361.407658 46.830784 
L 364.484536 95.495674 
L 367.561413 150.018745 
L 370.638291 209.040418 
L 373.715168 244.809312 
L 376.792045 245.409126 
L 379.868923 245.209188 
L 398.330188 245.209188 
L 401.407065 245.409126 
L 404.483943 245.209188 
L 438.329595 245.209188 
L 441.406472 226.255073 
L 444.48335 149.8388 
L 447.560227 149.8388 
L 450.637105 149.638862 
L 456.79086 149.638862 
L 459.867737 149.8388 
L 462.944615 149.638862 
L 466.021492 149.638862 
L 469.09837 149.8388 
L 472.175247 149.638862 
L 475.252125 149.638862 
L 478.329002 149.8388 
L 484.482757 149.8388 
L 487.559634 149.638862 
L 490.636512 149.8388 
L 515.251532 149.8388 
L 518.328409 149.638862 
L 521.405287 149.8388 
L 546.020306 149.8388 
L 549.097184 149.638862 
L 555.250939 149.638862 
L 558.327816 149.8388 
L 561.404694 149.8388 
L 564.481571 149.638862 
L 567.558449 149.8388 
L 589.096591 149.8388 
L 592.173468 149.638862 
L 595.250346 149.8388 
L 598.327223 149.638862 
L 601.404101 149.8388 
L 616.788488 149.8388 
L 619.865366 149.638862 
L 622.942243 149.8388 
L 641.403508 149.8388 
L 644.480385 149.638862 
L 647.557263 149.8388 
L 659.864773 149.8388 
L 662.94165 149.638862 
L 666.018528 149.638862 
L 669.095405 149.8388 
L 672.172283 149.8388 
L 675.24916 149.638862 
L 678.326038 149.8388 
L 687.55667 149.8388 
L 690.633547 149.638862 
L 693.710425 149.8388 
L 696.787302 149.638862 
L 699.86418 149.8388 
L 702.941057 149.638862 
L 706.017935 149.8388 
L 724.4792 149.8388 
L 727.556077 149.638862 
L 733.709832 149.638862 
L 736.786709 149.8388 
L 746.017342 149.8388 
L 749.094219 149.638862 
L 752.171097 149.8388 
L 758.324852 149.8388 
L 761.401729 149.638862 
L 767.555484 149.638862 
L 770.632362 149.8388 
L 773.709239 149.638862 
L 776.786117 149.8388 
L 810.631769 149.8388 
L 813.708646 149.638862 
L 816.785524 149.8388 
L 847.554298 149.8388 
L 850.631176 149.638862 
L 853.708053 149.8388 
L 859.861808 149.8388 
L 862.938686 149.638862 
L 866.015563 149.8388 
L 875.246196 149.8388 
L 878.323073 149.638862 
L 881.399951 149.8388 
L 909.091848 149.8388 
L 912.168725 149.638862 
L 915.245603 149.638862 
L 918.32248 149.8388 
L 942.9375 149.8388 
L 946.014377 149.638862 
L 949.091255 149.8388 
L 952.168132 149.638862 
L 955.24501 149.638862 
L 958.321887 149.8388 
L 1001.398172 149.8388 
L 1004.475049 149.638862 
L 1007.551927 149.8388 
L 1013.705682 149.8388 
L 1013.705682 149.8388 
" clip-path="url(#pe1e03d6fda)" style="fill: none; stroke: #1f77b4; stroke-width: 1.5; stroke-linecap: square"/>
   </g>
   <g id="line2d_15">
    <path d="M 93.719318 45.521419 
L 99.873073 46.340832 
L 106.026828 46.803926 
L 112.180583 47.001321 
L 121.411215 47.02492 
L 149.103113 46.831387 
L 152.17999 47.22627 
L 155.256868 49.908813 
L 158.333745 57.17184 
L 161.410623 68.865883 
L 170.641255 110.669512 
L 173.718132 122.433961 
L 176.79501 132.180634 
L 179.871887 139.850219 
L 182.948765 145.571537 
L 186.025642 149.583717 
L 192.179397 154.783378 
L 195.256275 160.225507 
L 198.333152 169.745796 
L 201.41003 181.913884 
L 204.486907 194.806652 
L 207.563785 207.124459 
L 210.640662 218.083981 
L 213.71754 227.29195 
L 216.794417 234.636848 
L 219.871294 240.196823 
L 222.948172 244.165382 
L 226.025049 246.794476 
L 229.101927 248.357313 
L 232.178804 249.114772 
L 235.255682 249.290836 
L 238.332559 249.079878 
L 244.486314 248.092903 
L 250.640069 246.981073 
L 256.793824 246.081906 
L 262.947579 245.505851 
L 266.024457 243.437733 
L 269.101334 236.54291 
L 272.178211 225.171324 
L 275.255089 211.826417 
L 278.331966 196.752863 
L 281.408844 178.177705 
L 284.485721 156.246595 
L 287.562599 133.391294 
L 290.639476 111.779305 
L 293.716354 92.700884 
L 296.793231 76.780005 
L 299.870109 64.1632 
L 302.946986 54.67902 
L 306.023864 47.96585 
L 309.100741 43.569165 
L 312.177619 41.011361 
L 315.254496 39.838404 
L 318.331374 39.647849 
L 321.408251 40.102665 
L 324.485128 40.934856 
L 333.715761 43.95651 
L 336.792638 44.813046 
L 339.869516 45.524479 
L 342.946393 46.085697 
L 346.023271 46.505491 
L 352.177026 46.992696 
L 358.330781 47.151446 
L 361.407658 47.156934 
L 364.484536 48.111607 
L 367.561413 52.648067 
L 370.638291 63.470003 
L 373.715168 81.637849 
L 376.792045 105.691641 
L 382.9458 158.481088 
L 386.022678 182.222538 
L 389.099555 202.50909 
L 392.176433 218.950148 
L 395.25331 231.604125 
L 398.330188 240.812715 
L 401.407065 247.075857 
L 404.483943 250.950808 
L 407.56082 252.978785 
L 410.637698 253.655273 
L 413.714575 253.410636 
L 416.791453 252.594887 
L 422.945208 250.258691 
L 429.098962 247.998717 
L 432.17584 247.087047 
L 435.252717 246.351491 
L 438.329595 245.787976 
L 441.406472 244.999406 
L 444.48335 241.833825 
L 447.560227 233.947992 
L 450.637105 222.129603 
L 456.79086 195.389841 
L 459.867737 183.162506 
L 462.944615 172.635447 
L 466.021492 164.040521 
L 469.09837 157.375233 
L 472.175247 152.486981 
L 475.252125 149.12711 
L 478.329002 147.017377 
L 481.405879 145.886936 
L 484.482757 145.479393 
L 487.559634 145.564206 
L 490.636512 145.953962 
L 496.790267 147.137153 
L 502.944022 148.318855 
L 509.097777 149.195944 
L 515.251532 149.722098 
L 521.405287 149.954246 
L 530.635919 150.003698 
L 586.019713 149.801127 
L 613.711611 149.798065 
L 662.94165 149.812996 
L 712.17169 149.765264 
L 749.094219 149.770094 
L 1013.705682 149.813647 
L 1013.705682 149.813647 
" clip-path="url(#pe1e03d6fda)" style="fill: none; stroke: #ff7f0e; stroke-width: 1.5; stroke-linecap: square"/>
   </g>
   <g id="patch_3">
    <path d="M 47.72 266.762496 
L 47.72 26.836992 
" style="fill: none; stroke: #000000; stroke-width: 0.8; stroke-linejoin: miter; stroke-linecap: square"/>
   </g>
   <g id="patch_4">
    <path d="M 1059.705 266.762496 
L 1059.705 26.836992 
" style="fill: none; stroke: #000000; stroke-width: 0.8; stroke-linejoin: miter; stroke-linecap: square"/>
   </g>
   <g id="patch_5">
    <path d="M 47.72 266.762496 
L 1059.705 266.762496 
" style="fill: none; stroke: #000000; stroke-width: 0.8; stroke-linejoin: miter; stroke-linecap: square"/>
   </g>
   <g id="patch_6">
    <path d="M 47.72 26.836992 
L 1059.705 26.836992 
" style="fill: none; stroke: #000000; stroke-width: 0.8; stroke-linejoin: miter; stroke-linecap: square"/>
   </g>
   <g id="text_16">
    <!-- Time Domain -->
    <g transform="translate(513.843437 20.836992) scale(0.12 -0.12)">
     <defs>
      <path id="DejaVuSans-44" d="M 1259 4147 
L 1259 519 
L 2022 519 
Q 2988 519 3436 956 
Q 3884 1394 3884 2338 
Q 3884 3275 3436 3711 
Q 2988 4147 2022 4147 
L 1259 4147 
z
M 628 4666 
L 1925 4666 
Q 3281 4666 3915 4102 
Q 4550 3538 4550 2338 
Q 4550 1131 3912 565 
Q 3275 0 1925 0 
L 628 0 
L 628 4666 
z
" transform="scale(0.015625)"/>
      <path id="DejaVuSans-6f" d="M 1959 3097 
Q 1497 3097 1228 2736 
Q 959 2375 959 1747 
Q 959 1119 1226 758 
Q 1494 397 1959 397 
Q 2419 397 2687 759 
Q 2956 1122 2956 1747 
Q 2956 2369 2687 2733 
Q 2419 3097 1959 3097 
z
M 1959 3584 
Q 2709 3584 3137 3096 
Q 3566 2609 3566 1747 
Q 3566 888 3137 398 
Q 2709 -91 1959 -91 
Q 1206 -91 779 398 
Q 353 888 353 1747 
Q 353 2609 779 3096 
Q 1206 3584 1959 3584 
z
" transform="scale(0.015625)"/>
      <path id="DejaVuSans-6e" d="M 3513 2113 
L 3513 0 
L 2938 0 
L 2938 2094 
Q 2938 2591 2744 2837 
Q 2550 3084 2163 3084 
Q 1697 3084 1428 2787 
Q 1159 2491 1159 1978 
L 1159 0 
L 581 0 
L 581 3500 
L 1159 3500 
L 1159 2956 
Q 1366 3272 1645 3428 
Q 1925 3584 2291 3584 
Q 2894 3584 3203 3211 
Q 3513 2838 3513 2113 
z
" transform="scale(0.015625)"/>
     </defs>
     <use xlink:href="#DejaVuSans-54"/>
     <use xlink:href="#DejaVuSans-69" x="57.958984"/>
     <use xlink:href="#DejaVuSans-6d" x="85.742188"/>
     <use xlink:href="#DejaVuSans-65" x="183.154297"/>
     <use xlink:href="#DejaVuSans-20" x="244.677734"/>
     <use xlink:href="#DejaVuSans-44" x="276.464844"/>
     <use xlink:href="#DejaVuSans-6f" x="353.466797"/>
     <use xlink:href="#DejaVuSans-6d" x="414.648438"/>
     <use xlink:href="#DejaVuSans-61" x="512.060547"/>
     <use xlink:href="#DejaVuSans-69" x="573.339844"/>
     <use xlink:href="#DejaVuSans-6e" x="601.123047"/>
    </g>
   </g>
   <g id="legend_1">
    <g id="patch_7">
     <path d="M 919.997187 64.193242 
L 1052.705 64.193242 
Q 1054.705 64.193242 1054.705 62.193242 
L 1054.705 33.836992 
Q 1054.705 31.836992 1052.705 31.836992 
L 919.997187 31.836992 
Q 917.997187 31.836992 917.997187 33.836992 
L 917.997187 62.193242 
Q 917.997187 64.193242 919.997187 64.193242 
z
" style="fill: #ffffff; opacity: 0.8; stroke: #cccccc; stroke-linejoin: miter"/>
    </g>
    <g id="line2d_16">
     <path d="M 921.997187 39.935429 
L 931.997187 39.935429 
L 941.997187 39.935429 
" style="fill: none; stroke: #1f77b4; stroke-width: 1.5; stroke-linecap: square"/>
    </g>
    <g id="text_17">
     <!-- X-axis value -->
     <g transform="translate(949.997187 43.435429) scale(0.1 -0.1)">
      <defs>
       <path id="DejaVuSans-76" d="M 191 3500 
L 800 3500 
L 1894 563 
L 2988 3500 
L 3597 3500 
L 2284 0 
L 1503 0 
L 191 3500 
z
" transform="scale(0.015625)"/>
      </defs>
      <use xlink:href="#DejaVuSans-58"/>
      <use xlink:href="#DejaVuSans-2d" x="63.505859"/>
      <use xlink:href="#DejaVuSans-61" x="99.589844"/>
      <use xlink:href="#DejaVuSans-78" x="160.869141"/>
      <use xlink:href="#DejaVuSans-69" x="220.048828"/>
      <use xlink:href="#DejaVuSans-73" x="247.832031"/>
      <use xlink:href="#DejaVuSans-20" x="299.931641"/>
      <use xlink:href="#DejaVuSans-76" x="331.71875"/>
      <use xlink:href="#DejaVuSans-61" x="390.898438"/>
      <use xlink:href="#DejaVuSans-6c" x="452.177734"/>
      <use xlink:href="#DejaVuSans-75" x="479.960938"/>
      <use xlink:href="#DejaVuSans-65" x="543.339844"/>
     </g>
    </g>
    <g id="line2d_17">
     <path d="M 921.997187 54.613554 
L 931.997187 54.613554 
L 941.997187 54.613554 
" style="fill: none; stroke: #ff7f0e; stroke-width: 1.5; stroke-linecap: square"/>
    </g>
    <g id="text_18">
     <!-- Filtered X-axis value -->
     <g transform="translate(949.997187 58.113554) scale(0.1 -0.1)">
      <defs>
       <path id="DejaVuSans-46" d="M 628 4666 
L 3309 4666 
L 3309 4134 
L 1259 4134 
L 1259 2759 
L 3109 2759 
L 3109 2228 
L 1259 2228 
L 1259 0 
L 628 0 
L 628 4666 
z
" transform="scale(0.015625)"/>
       <path id="DejaVuSans-74" d="M 1172 4494 
L 1172 3500 
L 2356 3500 
L 2356 3053 
L 1172 3053 
L 1172 1153 
Q 1172 725 1289 603 
Q 1406 481 1766 481 
L 2356 481 
L 2356 0 
L 1766 0 
Q 1100 0 847 248 
Q 594 497 594 1153 
L 594 3053 
L 172 3053 
L 172 3500 
L 594 3500 
L 594 4494 
L 1172 4494 
z
" transform="scale(0.015625)"/>
       <path id="DejaVuSans-72" d="M 2631 2963 
Q 2534 3019 2420 3045 
Q 2306 3072 2169 3072 
Q 1681 3072 1420 2755 
Q 1159 2438 1159 1844 
L 1159 0 
L 581 0 
L 581 3500 
L 1159 3500 
L 1159 2956 
Q 1341 3275 1631 3429 
Q 1922 3584 2338 3584 
Q 2397 3584 2469 3576 
Q 2541 3569 2628 3553 
L 2631 2963 
z
" transform="scale(0.015625)"/>
       <path id="DejaVuSans-64" d="M 2906 2969 
L 2906 4863 
L 3481 4863 
L 3481 0 
L 2906 0 
L 2906 525 
Q 2725 213 2448 61 
Q 2172 -91 1784 -91 
Q 1150 -91 751 415 
Q 353 922 353 1747 
Q 353 2572 751 3078 
Q 1150 3584 1784 3584 
Q 2172 3584 2448 3432 
Q 2725 3281 2906 2969 
z
M 947 1747 
Q 947 1113 1208 752 
Q 1469 391 1925 391 
Q 2381 391 2643 752 
Q 2906 1113 2906 1747 
Q 2906 2381 2643 2742 
Q 2381 3103 1925 3103 
Q 1469 3103 1208 2742 
Q 947 2381 947 1747 
z
" transform="scale(0.015625)"/>
      </defs>
      <use xlink:href="#DejaVuSans-46"/>
      <use xlink:href="#DejaVuSans-69" x="50.269531"/>
      <use xlink:href="#DejaVuSans-6c" x="78.052734"/>
      <use xlink:href="#DejaVuSans-74" x="105.835938"/>
      <use xlink:href="#DejaVuSans-65" x="145.044922"/>
      <use xlink:href="#DejaVuSans-72" x="206.568359"/>
      <use xlink:href="#DejaVuSans-65" x="245.431641"/>
      <use xlink:href="#DejaVuSans-64" x="306.955078"/>
      <use xlink:href="#DejaVuSans-20" x="370.431641"/>
      <use xlink:href="#DejaVuSans-58" x="402.21875"/>
      <use xlink:href="#DejaVuSans-2d" x="465.724609"/>
      <use xlink:href="#DejaVuSans-61" x="501.808594"/>
      <use xlink:href="#DejaVuSans-78" x="563.087891"/>
      <use xlink:href="#DejaVuSans-69" x="622.267578"/>
      <use xlink:href="#DejaVuSans-73" x="650.050781"/>
      <use xlink:href="#DejaVuSans-20" x="702.150391"/>
      <use xlink:href="#DejaVuSans-76" x="733.9375"/>
      <use xlink:href="#DejaVuSans-61" x="793.117188"/>
      <use xlink:href="#DejaVuSans-6c" x="854.396484"/>
      <use xlink:href="#DejaVuSans-75" x="882.179688"/>
      <use xlink:href="#DejaVuSans-65" x="945.558594"/>
     </g>
    </g>
   </g>
  </g>
  <g id="axes_2">
   <g id="patch_8">
    <path d="M 47.72 564.635136 
L 1059.705 564.635136 
L 1059.705 324.709632 
L 47.72 324.709632 
z
" style="fill: #ffffff"/>
   </g>
   <g id="matplotlib.axis_3">
    <g id="xtick_8">
     <g id="line2d_18">
      <g>
       <use xlink:href="#m95b51ad784" x="47.72" y="564.635136" style="stroke: #000000; stroke-width: 0.8"/>
      </g>
     </g>
     <g id="text_19">
      <!-- 0 -->
      <g transform="translate(44.53875 579.233574) scale(0.1 -0.1)">
       <use xlink:href="#DejaVuSans-30"/>
      </g>
     </g>
    </g>
    <g id="xtick_9">
     <g id="line2d_19">
      <g>
       <use xlink:href="#m95b51ad784" x="250.117" y="564.635136" style="stroke: #000000; stroke-width: 0.8"/>
      </g>
     </g>
     <g id="text_20">
      <!-- 20 -->
      <g transform="translate(243.7545 579.233574) scale(0.1 -0.1)">
       <use xlink:href="#DejaVuSans-32"/>
       <use xlink:href="#DejaVuSans-30" x="63.623047"/>
      </g>
     </g>
    </g>
    <g id="xtick_10">
     <g id="line2d_20">
      <g>
       <use xlink:href="#m95b51ad784" x="452.514" y="564.635136" style="stroke: #000000; stroke-width: 0.8"/>
      </g>
     </g>
     <g id="text_21">
      <!-- 40 -->
      <g transform="translate(446.1515 579.233574) scale(0.1 -0.1)">
       <use xlink:href="#DejaVuSans-34"/>
       <use xlink:href="#DejaVuSans-30" x="63.623047"/>
      </g>
     </g>
    </g>
    <g id="xtick_11">
     <g id="line2d_21">
      <g>
       <use xlink:href="#m95b51ad784" x="654.911" y="564.635136" style="stroke: #000000; stroke-width: 0.8"/>
      </g>
     </g>
     <g id="text_22">
      <!-- 60 -->
      <g transform="translate(648.5485 579.233574) scale(0.1 -0.1)">
       <use xlink:href="#DejaVuSans-36"/>
       <use xlink:href="#DejaVuSans-30" x="63.623047"/>
      </g>
     </g>
    </g>
    <g id="xtick_12">
     <g id="line2d_22">
      <g>
       <use xlink:href="#m95b51ad784" x="857.308" y="564.635136" style="stroke: #000000; stroke-width: 0.8"/>
      </g>
     </g>
     <g id="text_23">
      <!-- 80 -->
      <g transform="translate(850.9455 579.233574) scale(0.1 -0.1)">
       <use xlink:href="#DejaVuSans-38"/>
       <use xlink:href="#DejaVuSans-30" x="63.623047"/>
      </g>
     </g>
    </g>
    <g id="xtick_13">
     <g id="line2d_23">
      <g>
       <use xlink:href="#m95b51ad784" x="1059.705" y="564.635136" style="stroke: #000000; stroke-width: 0.8"/>
      </g>
     </g>
     <g id="text_24">
      <!-- 100 -->
      <g transform="translate(1050.16125 579.233574) scale(0.1 -0.1)">
       <use xlink:href="#DejaVuSans-31"/>
       <use xlink:href="#DejaVuSans-30" x="63.623047"/>
       <use xlink:href="#DejaVuSans-30" x="127.246094"/>
      </g>
     </g>
    </g>
    <g id="text_25">
     <!-- Frequency -->
     <g transform="translate(527.882812 592.911699) scale(0.1 -0.1)">
      <defs>
       <path id="DejaVuSans-71" d="M 947 1747 
Q 947 1113 1208 752 
Q 1469 391 1925 391 
Q 2381 391 2643 752 
Q 2906 1113 2906 1747 
Q 2906 2381 2643 2742 
Q 2381 3103 1925 3103 
Q 1469 3103 1208 2742 
Q 947 2381 947 1747 
z
M 2906 525 
Q 2725 213 2448 61 
Q 2172 -91 1784 -91 
Q 1150 -91 751 415 
Q 353 922 353 1747 
Q 353 2572 751 3078 
Q 1150 3584 1784 3584 
Q 2172 3584 2448 3432 
Q 2725 3281 2906 2969 
L 2906 3500 
L 3481 3500 
L 3481 -1331 
L 2906 -1331 
L 2906 525 
z
" transform="scale(0.015625)"/>
       <path id="DejaVuSans-63" d="M 3122 3366 
L 3122 2828 
Q 2878 2963 2633 3030 
Q 2388 3097 2138 3097 
Q 1578 3097 1268 2742 
Q 959 2388 959 1747 
Q 959 1106 1268 751 
Q 1578 397 2138 397 
Q 2388 397 2633 464 
Q 2878 531 3122 666 
L 3122 134 
Q 2881 22 2623 -34 
Q 2366 -91 2075 -91 
Q 1284 -91 818 406 
Q 353 903 353 1747 
Q 353 2603 823 3093 
Q 1294 3584 2113 3584 
Q 2378 3584 2631 3529 
Q 2884 3475 3122 3366 
z
" transform="scale(0.015625)"/>
       <path id="DejaVuSans-79" d="M 2059 -325 
Q 1816 -950 1584 -1140 
Q 1353 -1331 966 -1331 
L 506 -1331 
L 506 -850 
L 844 -850 
Q 1081 -850 1212 -737 
Q 1344 -625 1503 -206 
L 1606 56 
L 191 3500 
L 800 3500 
L 1894 763 
L 2988 3500 
L 3597 3500 
L 2059 -325 
z
" transform="scale(0.015625)"/>
      </defs>
      <use xlink:href="#DejaVuSans-46"/>
      <use xlink:href="#DejaVuSans-72" x="50.269531"/>
      <use xlink:href="#DejaVuSans-65" x="89.132812"/>
      <use xlink:href="#DejaVuSans-71" x="150.65625"/>
      <use xlink:href="#DejaVuSans-75" x="214.132812"/>
      <use xlink:href="#DejaVuSans-65" x="277.511719"/>
      <use xlink:href="#DejaVuSans-6e" x="339.035156"/>
      <use xlink:href="#DejaVuSans-63" x="402.414062"/>
      <use xlink:href="#DejaVuSans-79" x="457.394531"/>
     </g>
    </g>
   </g>
   <g id="matplotlib.axis_4">
    <g id="ytick_7">
     <g id="line2d_24">
      <g>
       <use xlink:href="#md1e9a3ca46" x="47.72" y="564.635136" style="stroke: #000000; stroke-width: 0.8"/>
      </g>
     </g>
     <g id="text_26">
      <!-- 0 -->
      <g transform="translate(34.3575 568.434355) scale(0.1 -0.1)">
       <use xlink:href="#DejaVuSans-30"/>
      </g>
     </g>
    </g>
    <g id="ytick_8">
     <g id="line2d_25">
      <g>
       <use xlink:href="#md1e9a3ca46" x="47.72" y="516.650035" style="stroke: #000000; stroke-width: 0.8"/>
      </g>
     </g>
     <g id="text_27">
      <!-- 10 -->
      <g transform="translate(27.995 520.449254) scale(0.1 -0.1)">
       <use xlink:href="#DejaVuSans-31"/>
       <use xlink:href="#DejaVuSans-30" x="63.623047"/>
      </g>
     </g>
    </g>
    <g id="ytick_9">
     <g id="line2d_26">
      <g>
       <use xlink:href="#md1e9a3ca46" x="47.72" y="468.664934" style="stroke: #000000; stroke-width: 0.8"/>
      </g>
     </g>
     <g id="text_28">
      <!-- 20 -->
      <g transform="translate(27.995 472.464153) scale(0.1 -0.1)">
       <use xlink:href="#DejaVuSans-32"/>
       <use xlink:href="#DejaVuSans-30" x="63.623047"/>
      </g>
     </g>
    </g>
    <g id="ytick_10">
     <g id="line2d_27">
      <g>
       <use xlink:href="#md1e9a3ca46" x="47.72" y="420.679834" style="stroke: #000000; stroke-width: 0.8"/>
      </g>
     </g>
     <g id="text_29">
      <!-- 30 -->
      <g transform="translate(27.995 424.479052) scale(0.1 -0.1)">
       <use xlink:href="#DejaVuSans-33"/>
       <use xlink:href="#DejaVuSans-30" x="63.623047"/>
      </g>
     </g>
    </g>
    <g id="ytick_11">
     <g id="line2d_28">
      <g>
       <use xlink:href="#md1e9a3ca46" x="47.72" y="372.694733" style="stroke: #000000; stroke-width: 0.8"/>
      </g>
     </g>
     <g id="text_30">
      <!-- 40 -->
      <g transform="translate(27.995 376.493952) scale(0.1 -0.1)">
       <use xlink:href="#DejaVuSans-34"/>
       <use xlink:href="#DejaVuSans-30" x="63.623047"/>
      </g>
     </g>
    </g>
    <g id="ytick_12">
     <g id="line2d_29">
      <g>
       <use xlink:href="#md1e9a3ca46" x="47.72" y="324.709632" style="stroke: #000000; stroke-width: 0.8"/>
      </g>
     </g>
     <g id="text_31">
      <!-- 50 -->
      <g transform="translate(27.995 328.508851) scale(0.1 -0.1)">
       <use xlink:href="#DejaVuSans-35"/>
       <use xlink:href="#DejaVuSans-30" x="63.623047"/>
      </g>
     </g>
    </g>
    <g id="text_32">
     <!-- Amplitude -->
     <g transform="translate(21.915312 470.29504) rotate(-90) scale(0.1 -0.1)">
      <defs>
       <path id="DejaVuSans-41" d="M 2188 4044 
L 1331 1722 
L 3047 1722 
L 2188 4044 
z
M 1831 4666 
L 2547 4666 
L 4325 0 
L 3669 0 
L 3244 1197 
L 1141 1197 
L 716 0 
L 50 0 
L 1831 4666 
z
" transform="scale(0.015625)"/>
       <path id="DejaVuSans-70" d="M 1159 525 
L 1159 -1331 
L 581 -1331 
L 581 3500 
L 1159 3500 
L 1159 2969 
Q 1341 3281 1617 3432 
Q 1894 3584 2278 3584 
Q 2916 3584 3314 3078 
Q 3713 2572 3713 1747 
Q 3713 922 3314 415 
Q 2916 -91 2278 -91 
Q 1894 -91 1617 61 
Q 1341 213 1159 525 
z
M 3116 1747 
Q 3116 2381 2855 2742 
Q 2594 3103 2138 3103 
Q 1681 3103 1420 2742 
Q 1159 2381 1159 1747 
Q 1159 1113 1420 752 
Q 1681 391 2138 391 
Q 2594 391 2855 752 
Q 3116 1113 3116 1747 
z
" transform="scale(0.015625)"/>
      </defs>
      <use xlink:href="#DejaVuSans-41"/>
      <use xlink:href="#DejaVuSans-6d" x="68.408203"/>
      <use xlink:href="#DejaVuSans-70" x="165.820312"/>
      <use xlink:href="#DejaVuSans-6c" x="229.296875"/>
      <use xlink:href="#DejaVuSans-69" x="257.080078"/>
      <use xlink:href="#DejaVuSans-74" x="284.863281"/>
      <use xlink:href="#DejaVuSans-75" x="324.072266"/>
      <use xlink:href="#DejaVuSans-64" x="387.451172"/>
      <use xlink:href="#DejaVuSans-65" x="450.927734"/>
     </g>
    </g>
   </g>
   <g id="line2d_30">
    <path d="M 54.466567 518.648258 
L 61.213133 541.700449 
L 67.9597 498.373314 
L 74.706267 411.719378 
L 81.452833 397.306306 
L 88.1994 460.965562 
L 94.945967 540.667047 
L 101.692533 533.399841 
L 108.4391 545.702902 
L 115.185667 551.371786 
L 121.932233 535.869412 
L 128.6788 542.097606 
L 135.425367 552.583188 
L 142.171933 548.592104 
L 148.9185 535.58962 
L 155.665067 534.277833 
L 162.411633 542.334272 
L 169.1582 546.780152 
L 175.904767 558.964447 
L 182.651333 549.512972 
L 189.3979 537.340722 
L 196.144467 543.669006 
L 202.891033 559.276782 
L 209.6376 555.403433 
L 216.384167 550.365073 
L 223.130733 548.053388 
L 229.8773 551.813584 
L 236.623867 558.617576 
L 243.370433 559.672974 
L 250.117 557.143591 
L 256.863567 550.800317 
L 263.610133 552.129861 
L 270.3567 561.782903 
L 277.103267 557.005538 
L 283.849833 556.149359 
L 290.5964 561.318148 
L 297.342967 562.824475 
L 304.089533 559.24244 
L 310.8361 555.371339 
L 317.582667 558.372536 
L 324.329233 561.906128 
L 331.0758 555.293962 
L 337.822367 557.021615 
L 344.568933 563.559226 
L 351.3155 559.499515 
L 358.062067 558.263699 
L 364.808633 557.209966 
L 371.5552 557.268191 
L 378.301767 557.532475 
L 385.048333 558.391585 
L 391.7949 562.664503 
L 398.541467 559.053352 
L 405.288033 558.294351 
L 412.0346 562.058827 
L 418.781167 558.39456 
L 425.527733 557.498549 
L 432.2743 559.10657 
L 439.020867 558.643502 
L 445.767433 559.836007 
L 452.514 560.729995 
L 459.260567 561.055421 
L 466.007133 562.370283 
L 472.7537 561.308505 
L 479.500267 561.910444 
L 486.246833 560.463819 
L 492.9934 560.492912 
L 499.739967 562.273938 
L 506.486533 558.0559 
L 513.2331 557.113705 
L 519.979667 559.055293 
L 526.726233 558.943882 
L 533.4728 559.902234 
L 540.219367 561.958112 
L 546.965933 562.23462 
L 553.7125 563.115406 
L 560.459067 562.605288 
L 567.205633 563.204177 
L 573.9522 560.44775 
L 580.698767 558.497892 
L 587.445333 559.947756 
L 594.1919 560.967323 
L 600.938467 561.358665 
L 607.685033 562.831399 
L 614.4316 560.871145 
L 621.178167 561.115244 
L 627.924733 562.144965 
L 634.6713 561.590217 
L 641.417867 563.218493 
L 648.164433 562.192397 
L 654.911 561.426272 
L 661.657567 563.03225 
L 668.404133 563.558802 
L 675.1507 563.333691 
L 681.897267 561.286315 
L 688.643833 560.848974 
L 695.3904 562.186037 
L 702.136967 561.024885 
L 708.883533 561.568009 
L 715.6301 564.312754 
L 722.376667 561.702465 
L 729.123233 562.185389 
L 735.8698 564.004912 
L 742.616367 563.571166 
L 749.362933 564.189737 
L 756.1095 562.74665 
L 762.856067 563.208632 
L 769.602633 562.536507 
L 776.3492 561.736069 
L 783.095767 563.589491 
L 789.842333 563.026272 
L 796.5889 562.7421 
L 803.335467 563.948094 
L 810.082033 561.824524 
L 816.8286 562.151789 
L 823.575167 563.615463 
L 830.321733 563.13063 
L 837.0683 563.568503 
L 843.814867 562.168361 
L 850.561433 562.256198 
L 857.308 564.057174 
L 864.054567 563.869684 
L 870.801133 564.075084 
L 877.5477 561.723824 
L 884.294267 561.01454 
L 891.040833 562.894108 
L 897.7874 563.737077 
L 904.533967 563.501974 
L 918.0271 561.505748 
L 924.773667 562.582174 
L 931.520233 564.083731 
L 938.2668 564.267974 
L 945.013367 562.798941 
L 951.759933 561.006741 
L 958.5065 561.587061 
L 965.253067 563.754932 
L 971.999633 564.245432 
L 978.7462 563.402687 
L 985.492767 561.704354 
L 992.239333 561.821474 
L 998.9859 563.591983 
L 1005.732467 564.13044 
L 1012.479033 563.669331 
L 1019.2256 561.216448 
L 1025.972167 560.431076 
L 1032.718733 562.114362 
L 1039.4653 564.142204 
L 1046.211867 564.475159 
L 1052.958433 562.748128 
L 1052.958433 562.748128 
" clip-path="url(#paca7de0faf)" style="fill: none; stroke: #1f77b4; stroke-width: 1.5; stroke-linecap: square"/>
   </g>
   <g id="line2d_31">
    <path d="M 54.466567 507.652395 
L 61.213133 534.220924 
L 67.9597 491.075245 
L 74.706267 401.357794 
L 81.452833 397.874988 
L 88.1994 473.183986 
L 94.945967 538.135511 
L 101.692533 532.509259 
L 108.4391 557.483685 
L 115.185667 544.710745 
L 121.932233 543.698622 
L 128.6788 556.353608 
L 135.425367 551.881827 
L 142.171933 542.650317 
L 148.9185 544.116564 
L 155.665067 553.756232 
L 162.411633 545.758469 
L 169.1582 547.362103 
L 175.904767 558.101451 
L 182.651333 550.200483 
L 189.3979 551.424286 
L 196.144467 561.463112 
L 202.891033 560.135768 
L 209.6376 559.398934 
L 216.384167 561.805576 
L 223.130733 563.054572 
L 229.8773 558.395224 
L 236.623867 557.910672 
L 243.370433 560.872681 
L 250.117 558.30435 
L 256.863567 558.45175 
L 263.610133 562.227107 
L 270.3567 560.426278 
L 277.103267 560.348156 
L 283.849833 561.915231 
L 290.5964 561.282552 
L 297.342967 561.02054 
L 304.089533 561.13069 
L 310.8361 562.107157 
L 317.582667 561.856654 
L 324.329233 561.284605 
L 331.0758 562.372698 
L 337.822367 561.851887 
L 344.568933 561.460138 
L 351.3155 562.111496 
L 358.062067 561.400286 
L 364.808633 561.21604 
L 371.5552 561.820087 
L 378.301767 562.193615 
L 385.048333 562.405167 
L 391.7949 562.14962 
L 405.288033 562.524651 
L 412.0346 562.319661 
L 418.781167 562.57624 
L 432.2743 561.991546 
L 439.020867 562.383426 
L 445.767433 562.595378 
L 459.260567 562.528862 
L 466.007133 562.377653 
L 479.500267 562.612989 
L 492.9934 562.7363 
L 499.739967 562.545014 
L 519.979667 562.872026 
L 526.726233 562.858921 
L 533.4728 562.727634 
L 540.219367 562.708411 
L 553.7125 562.854566 
L 567.205633 562.843398 
L 573.9522 562.837309 
L 580.698767 562.983119 
L 600.938467 562.97841 
L 607.685033 562.932201 
L 621.178167 563.053132 
L 681.897267 563.109795 
L 702.136967 563.179326 
L 789.842333 563.25949 
L 904.533967 563.343064 
L 1052.958433 563.380539 
L 1052.958433 563.380539 
" clip-path="url(#paca7de0faf)" style="fill: none; stroke: #ff7f0e; stroke-width: 1.5; stroke-linecap: square"/>
   </g>
   <g id="patch_9">
    <path d="M 47.72 564.635136 
L 47.72 324.709632 
" style="fill: none; stroke: #000000; stroke-width: 0.8; stroke-linejoin: miter; stroke-linecap: square"/>
   </g>
   <g id="patch_10">
    <path d="M 1059.705 564.635136 
L 1059.705 324.709632 
" style="fill: none; stroke: #000000; stroke-width: 0.8; stroke-linejoin: miter; stroke-linecap: square"/>
   </g>
   <g id="patch_11">
    <path d="M 47.72 564.635136 
L 1059.705 564.635136 
" style="fill: none; stroke: #000000; stroke-width: 0.8; stroke-linejoin: miter; stroke-linecap: square"/>
   </g>
   <g id="patch_12">
    <path d="M 47.72 324.709632 
L 1059.705 324.709632 
" style="fill: none; stroke: #000000; stroke-width: 0.8; stroke-linejoin: miter; stroke-linecap: square"/>
   </g>
   <g id="text_33">
    <!-- Frequency Domain -->
    <g transform="translate(497.528125 318.709632) scale(0.12 -0.12)">
     <use xlink:href="#DejaVuSans-46"/>
     <use xlink:href="#DejaVuSans-72" x="50.269531"/>
     <use xlink:href="#DejaVuSans-65" x="89.132812"/>
     <use xlink:href="#DejaVuSans-71" x="150.65625"/>
     <use xlink:href="#DejaVuSans-75" x="214.132812"/>
     <use xlink:href="#DejaVuSans-65" x="277.511719"/>
     <use xlink:href="#DejaVuSans-6e" x="339.035156"/>
     <use xlink:href="#DejaVuSans-63" x="402.414062"/>
     <use xlink:href="#DejaVuSans-79" x="457.394531"/>
     <use xlink:href="#DejaVuSans-20" x="516.574219"/>
     <use xlink:href="#DejaVuSans-44" x="548.361328"/>
     <use xlink:href="#DejaVuSans-6f" x="625.363281"/>
     <use xlink:href="#DejaVuSans-6d" x="686.544922"/>
     <use xlink:href="#DejaVuSans-61" x="783.957031"/>
     <use xlink:href="#DejaVuSans-69" x="845.236328"/>
     <use xlink:href="#DejaVuSans-6e" x="873.019531"/>
    </g>
   </g>
   <g id="legend_2">
    <g id="patch_13">
     <path d="M 919.997187 362.065882 
L 1052.705 362.065882 
Q 1054.705 362.065882 1054.705 360.065882 
L 1054.705 331.709632 
Q 1054.705 329.709632 1052.705 329.709632 
L 919.997187 329.709632 
Q 917.997187 329.709632 917.997187 331.709632 
L 917.997187 360.065882 
Q 917.997187 362.065882 919.997187 362.065882 
z
" style="fill: #ffffff; opacity: 0.8; stroke: #cccccc; stroke-linejoin: miter"/>
    </g>
    <g id="line2d_32">
     <path d="M 921.997187 337.808069 
L 931.997187 337.808069 
L 941.997187 337.808069 
" style="fill: none; stroke: #1f77b4; stroke-width: 1.5; stroke-linecap: square"/>
    </g>
    <g id="text_34">
     <!-- X-axis value -->
     <g transform="translate(949.997187 341.308069) scale(0.1 -0.1)">
      <use xlink:href="#DejaVuSans-58"/>
      <use xlink:href="#DejaVuSans-2d" x="63.505859"/>
      <use xlink:href="#DejaVuSans-61" x="99.589844"/>
      <use xlink:href="#DejaVuSans-78" x="160.869141"/>
      <use xlink:href="#DejaVuSans-69" x="220.048828"/>
      <use xlink:href="#DejaVuSans-73" x="247.832031"/>
      <use xlink:href="#DejaVuSans-20" x="299.931641"/>
      <use xlink:href="#DejaVuSans-76" x="331.71875"/>
      <use xlink:href="#DejaVuSans-61" x="390.898438"/>
      <use xlink:href="#DejaVuSans-6c" x="452.177734"/>
      <use xlink:href="#DejaVuSans-75" x="479.960938"/>
      <use xlink:href="#DejaVuSans-65" x="543.339844"/>
     </g>
    </g>
    <g id="line2d_33">
     <path d="M 921.997187 352.486195 
L 931.997187 352.486195 
L 941.997187 352.486195 
" style="fill: none; stroke: #ff7f0e; stroke-width: 1.5; stroke-linecap: square"/>
    </g>
    <g id="text_35">
     <!-- Filtered X-axis value -->
     <g transform="translate(949.997187 355.986195) scale(0.1 -0.1)">
      <use xlink:href="#DejaVuSans-46"/>
      <use xlink:href="#DejaVuSans-69" x="50.269531"/>
      <use xlink:href="#DejaVuSans-6c" x="78.052734"/>
      <use xlink:href="#DejaVuSans-74" x="105.835938"/>
      <use xlink:href="#DejaVuSans-65" x="145.044922"/>
      <use xlink:href="#DejaVuSans-72" x="206.568359"/>
      <use xlink:href="#DejaVuSans-65" x="245.431641"/>
      <use xlink:href="#DejaVuSans-64" x="306.955078"/>
      <use xlink:href="#DejaVuSans-20" x="370.431641"/>
      <use xlink:href="#DejaVuSans-58" x="402.21875"/>
      <use xlink:href="#DejaVuSans-2d" x="465.724609"/>
      <use xlink:href="#DejaVuSans-61" x="501.808594"/>
      <use xlink:href="#DejaVuSans-78" x="563.087891"/>
      <use xlink:href="#DejaVuSans-69" x="622.267578"/>
      <use xlink:href="#DejaVuSans-73" x="650.050781"/>
      <use xlink:href="#DejaVuSans-20" x="702.150391"/>
      <use xlink:href="#DejaVuSans-76" x="733.9375"/>
      <use xlink:href="#DejaVuSans-61" x="793.117188"/>
      <use xlink:href="#DejaVuSans-6c" x="854.396484"/>
      <use xlink:href="#DejaVuSans-75" x="882.179688"/>
      <use xlink:href="#DejaVuSans-65" x="945.558594"/>
     </g>
    </g>
   </g>
  </g>
 </g>
 <defs>
  <clipPath id="pe1e03d6fda">
   <rect x="47.72" y="26.836992" width="1011.985" height="239.925504"/>
  </clipPath>
  <clipPath id="paca7de0faf">
   <rect x="47.72" y="324.709632" width="1011.985" height="239.925504"/>
  </clipPath>
 </defs>
</svg>
